<svg width="178" height="178" viewBox="0 0 178 178" fill="none" xmlns="http://www.w3.org/2000/svg">
<path d="M122.718 105.194C129.759 104.422 136.479 103.272 143.359 102.311C149.885 101.326 156.318 99.444 162.843 98.4591C161.973 98.2221 161.103 97.9851 160.393 97.9371C157.266 97.013 154.106 96.443 151.402 94.8346C148.344 93.2023 150.274 87.9862 153.824 88.226C157.179 88.6309 160.432 90.0982 163.524 91.3764C166.811 92.4896 169.904 93.7678 173.351 95.07C176.123 95.9701 176.526 99.2053 174.387 101.021C171.435 103.851 167.487 105.902 163.893 107.976C160.105 110.215 156.512 112.289 152.505 113.087C150.147 113.463 149 110.534 150.556 109.213C153.313 106.548 156.712 104.639 160.145 102.376C156.653 103.387 152.968 104.564 149.316 105.387C143.627 106.963 138.132 108.374 132.316 109.407C120.685 111.472 108.962 112.641 97.3406 112.747C74.842 112.652 52.5234 108.828 31.941 99.9519C20.7964 95.1 9.2045 89.3267 0.953262 80.393C-0.169919 79.0696 1.42017 77.3949 2.96641 78.034C15.0056 84.7285 26.1063 91.8944 39.2202 96.7011C51.9791 101.484 65.4578 104.355 79.2671 105.644C93.7864 106.982 108.281 106.713 122.718 105.194Z" fill="#FFC727"/>
</svg>
