<svg width="38" height="38" viewBox="0 0 38 38" fill="none" xmlns="http://www.w3.org/2000/svg">
<rect width="38" height="38" rx="19" fill="#0063D1"/>
<path d="M8.43532 15.9688C6.42511 15.9688 4.75 16.7713 4.75 19.1929C4.75 21.1114 5.87641 22.3194 8.48713 22.3194C11.5601 22.3194 11.7571 20.4142 11.7571 20.4142H10.2681C10.2681 20.4142 9.94892 21.4401 8.39635 21.4401C7.13181 21.4401 6.22234 20.6361 6.22234 19.5093H11.9129V18.8021C11.9129 17.6873 11.161 15.9688 8.43532 15.9688ZM8.38332 16.8725C9.58701 16.8725 10.4076 17.5665 10.4076 18.6067H6.25523C6.25523 17.5024 7.32641 16.8725 8.38332 16.8725Z" fill="white"/>
<path d="M11.9116 13.625V21.1046C11.9116 21.5291 11.8794 22.1253 11.8794 22.1253H13.2995C13.2995 22.1253 13.3506 21.6971 13.3506 21.3058C13.3506 21.3058 14.0523 22.339 15.9602 22.339C17.9692 22.339 19.334 21.0261 19.334 19.1453C19.334 17.3955 18.0805 15.9882 15.9634 15.9882C13.981 15.9882 13.3649 16.9958 13.3649 16.9958V13.625H11.9116ZM15.5968 16.9134C16.9612 16.9134 17.8288 17.8664 17.8288 19.1453C17.8288 20.5167 16.8268 21.4139 15.6066 21.4139C14.1505 21.4139 13.3649 20.3437 13.3649 19.1575C13.3649 18.0522 14.0697 16.9134 15.5968 16.9134Z" fill="white"/>
<path d="M22.8649 15.9688C19.8407 15.9688 19.6468 17.5272 19.6468 17.7763H21.152C21.152 17.7763 21.2309 16.8664 22.761 16.8664C23.7553 16.8664 24.5258 17.2948 24.5258 18.1182V18.4113H22.761C20.4182 18.4113 19.1797 19.0564 19.1797 20.3655C19.1797 21.6537 20.324 22.3546 21.8706 22.3546C23.9783 22.3546 24.6572 21.2585 24.6572 21.2585C24.6572 21.6945 24.6929 22.1241 24.6929 22.1241H26.031C26.031 22.1241 25.9792 21.5916 25.9792 21.2509V18.306C25.9792 16.375 24.3243 15.9688 22.8649 15.9688ZM24.5258 19.2907V19.6815C24.5258 20.1912 24.1915 21.4585 22.2241 21.4585C21.1468 21.4585 20.6849 20.9524 20.6849 20.3654C20.6849 19.2975 22.2404 19.2907 24.5258 19.2907Z" fill="white"/>
<path d="M25.168 16.2148H26.8613L29.2916 20.7974L31.7163 16.2148H33.2503L28.8338 24.3732H27.2247L28.4991 22.0989L25.168 16.2148Z" fill="white"/>
</svg>
