<svg width="35" height="35" viewBox="0 0 35 35" fill="none" xmlns="http://www.w3.org/2000/svg">
<rect width="35" height="35" rx="17.5" fill="#D93025"/>
<path opacity="0.3" d="M27.3424 9.48047H7.65625L8.38542 25.3387H26.6132L27.3424 9.48047Z" fill="white"/>
<path opacity="0.3" d="M27.3424 9.48047H7.65625L16.7244 16.2473H18.4106L27.3424 9.48047Z" fill="white"/>
<path opacity="0.1" d="M9.29688 25.3398L17.5 17.957L25.7031 25.3398H9.29688Z" fill="white"/>
<path fill-rule="evenodd" clip-rule="evenodd" d="M9.29668 10.8476C9.29668 10.0929 8.68532 9.48047 7.92959 9.48047C7.17496 9.48047 6.5625 10.0929 6.5625 10.8476C6.5625 13.7589 6.5625 20.5605 6.5625 23.6982C6.5625 24.6049 7.29745 25.3387 8.20301 25.3387C8.78484 25.3387 9.29668 25.3387 9.29668 25.3387C9.29668 25.3387 9.29668 14.6962 9.29668 10.8476Z" fill="white"/>
<path fill-rule="evenodd" clip-rule="evenodd" d="M25.7031 10.8476C25.7031 10.0929 26.3156 9.48047 27.0702 9.48047C27.0713 9.48047 27.0724 9.48047 27.0724 9.48047C27.827 9.48047 28.4373 10.0918 28.4373 10.8454C28.4373 13.7556 28.4373 20.5594 28.4373 23.6982C28.4373 24.6049 27.7035 25.3387 26.7968 25.3387C26.2161 25.3387 25.7031 25.3387 25.7031 25.3387C25.7031 25.3387 25.7031 14.6962 25.7031 10.8476Z" fill="white"/>
<path fill-rule="evenodd" clip-rule="evenodd" d="M7.24572 12.0317C6.93184 11.8501 6.70326 11.5527 6.6092 11.2027C6.51515 10.8527 6.56436 10.4809 6.74591 10.167C6.74591 10.167 6.74701 10.1659 6.74701 10.1648C6.92856 9.8509 7.22713 9.62232 7.5771 9.52827C7.92708 9.43421 8.30002 9.48343 8.61391 9.66498L17.5 14.7954L26.3883 9.66388C26.7022 9.48233 27.074 9.43312 27.424 9.52717C27.774 9.62123 28.0714 9.84981 28.253 10.1637L28.2541 10.1648C28.4356 10.4787 28.4849 10.8527 28.3908 11.2027C28.2967 11.5527 28.0671 11.8512 27.7532 12.0328L20.2342 16.3736L17.5 17.9528L14.7658 16.3736L7.24572 12.0317Z" fill="white"/>
</svg>
