<svg width="24" height="24" viewBox="0 0 24 24" fill="none" xmlns="http://www.w3.org/2000/svg">
<rect width="24" height="24" rx="12" fill="#0077B5"/>
<path d="M18.6641 17.6647C17.8766 17.646 17.1078 17.646 16.3203 17.6647C16.1516 17.6647 16.1141 17.6272 16.1141 17.4585C16.1141 16.071 16.1141 14.6647 16.1141 13.2772C16.1141 12.9585 16.0953 12.6397 16.0016 12.3397C15.7203 11.3647 14.5953 11.0085 13.7891 11.6647C13.3578 12.0022 13.1891 12.471 13.1891 13.0335C13.1891 14.346 13.1891 15.6585 13.1891 16.971C13.1891 17.1397 13.1703 17.3085 13.1891 17.496C13.2078 17.646 13.1328 17.6835 13.0016 17.6647C12.1953 17.6647 11.4078 17.6647 10.6016 17.6647C10.4516 17.6647 10.4141 17.6272 10.4141 17.4772C10.4328 16.296 10.4328 15.1147 10.4328 13.9147C10.4328 12.4522 10.4328 10.9897 10.4141 9.54599C10.4141 9.37724 10.4516 9.33974 10.6016 9.33974C11.4078 9.33974 12.1953 9.33974 13.0016 9.33974C13.1516 9.33974 13.1891 9.37724 13.1891 9.52724C13.1891 9.82724 13.1891 10.1272 13.1891 10.4835C13.2453 10.4272 13.2641 10.4085 13.2828 10.3897C14.0141 9.32099 15.0453 9.02099 16.2641 9.20849C17.6703 9.43349 18.5703 10.4085 18.7953 11.9085C18.8516 12.2647 18.8703 12.621 18.8703 12.9772C18.8703 14.4772 18.8703 15.9585 18.8703 17.4585C18.8703 17.6085 18.8328 17.6647 18.6641 17.6647Z" fill="white"/>
<path d="M8.9125 13.5023C8.9125 14.8148 8.9125 16.1273 8.9125 17.4398C8.9125 17.6086 8.875 17.6648 8.70625 17.6648C7.91875 17.6461 7.13125 17.6648 6.34375 17.6648C6.19375 17.6648 6.15625 17.6273 6.15625 17.4773C6.15625 14.8336 6.15625 12.1711 6.15625 9.52734C6.15625 9.39609 6.19375 9.33984 6.34375 9.33984C7.15 9.33984 7.95625 9.33984 8.7625 9.33984C8.93125 9.33984 8.95 9.39609 8.95 9.54609C8.9125 10.8586 8.9125 12.1711 8.9125 13.5023Z" fill="white"/>
<path d="M9.04568 7.16324C8.85818 7.91324 8.08943 8.34449 7.20818 8.19449C6.27068 8.04449 5.74568 7.12574 6.08318 6.22574C6.30818 5.66324 6.85193 5.32574 7.54568 5.34449C8.59568 5.32574 9.28943 6.16949 9.04568 7.16324Z" fill="white"/>
</svg>
