<svg width="36" height="36" viewBox="0 0 36 36" fill="none" xmlns="http://www.w3.org/2000/svg">
<g filter="url(#filter0_d)">
<rect x="4" width="28" height="28" rx="14" fill="#EE8208"/>
<path d="M17.9996 7.4914C19.0995 7.4914 19.9942 8.38611 19.9942 9.48606C19.9942 10.5851 19.0993 11.4798 17.9996 11.4798C16.9003 11.4798 16.0054 10.5851 16.0054 9.48606C16.0051 8.38588 16.9006 7.4914 17.9996 7.4914ZM17.9996 14.3018C20.6565 14.3018 22.8172 12.1418 22.8172 9.48606C22.8172 6.82889 20.6567 4.66797 17.9996 4.66797C15.3429 4.66797 13.1819 6.82912 13.1819 9.48606C13.1819 12.1418 15.3429 14.3018 17.9996 14.3018ZM19.9486 18.2314C20.9397 18.0057 21.8854 17.6141 22.746 17.0732C23.0628 16.8738 23.2874 16.5568 23.3705 16.1919C23.4535 15.827 23.3882 15.444 23.1889 15.1272C23.0904 14.9701 22.9618 14.8341 22.8106 14.7268C22.6594 14.6195 22.4885 14.5431 22.3078 14.5019C22.127 14.4607 21.9399 14.4555 21.7572 14.4867C21.5744 14.5178 21.3996 14.5847 21.2427 14.6835C19.269 15.9243 16.7288 15.9234 14.7567 14.6835C14.5998 14.5847 14.425 14.5178 14.2423 14.4866C14.0595 14.4554 13.8724 14.4606 13.6917 14.5018C13.5109 14.543 13.3401 14.6194 13.1889 14.7267C13.0377 14.8341 12.9092 14.9701 12.8107 15.1272C12.6113 15.4439 12.5459 15.8268 12.6289 16.1917C12.7118 16.5567 12.9363 16.8737 13.253 17.0732C14.1134 17.6139 15.059 18.0055 16.0499 18.2314L13.3567 20.9251C13.0921 21.1898 12.9434 21.5489 12.9435 21.9232C12.9436 22.2976 13.0923 22.6566 13.3571 22.9212C13.6218 23.1859 13.9809 23.3345 14.3552 23.3345C14.7296 23.3344 15.0886 23.1856 15.3533 22.9209L17.9991 20.2745L20.6466 22.9211C20.7775 23.0522 20.933 23.1562 21.1041 23.2272C21.2752 23.2981 21.4587 23.3346 21.6439 23.3346C21.8292 23.3346 22.0126 23.2981 22.1838 23.2272C22.3549 23.1562 22.5104 23.0522 22.6413 22.9211C22.7726 22.7902 22.8767 22.6347 22.9478 22.4635C23.0189 22.2923 23.0555 22.1087 23.0555 21.9233C23.0555 21.7379 23.0189 21.5544 22.9478 21.3831C22.8767 21.2119 22.7726 21.0564 22.6413 20.9255L19.9486 18.2314Z" fill="white"/>
</g>
<defs>
<filter id="filter0_d" x="0" y="0" width="36" height="36" filterUnits="userSpaceOnUse" color-interpolation-filters="sRGB">
<feFlood flood-opacity="0" result="BackgroundImageFix"/>
<feColorMatrix in="SourceAlpha" type="matrix" values="0 0 0 0 0 0 0 0 0 0 0 0 0 0 0 0 0 0 127 0" result="hardAlpha"/>
<feOffset dy="4"/>
<feGaussianBlur stdDeviation="2"/>
<feComposite in2="hardAlpha" operator="out"/>
<feColorMatrix type="matrix" values="0 0 0 0 0 0 0 0 0 0 0 0 0 0 0 0 0 0 0.25 0"/>
<feBlend mode="normal" in2="BackgroundImageFix" result="effect1_dropShadow"/>
<feBlend mode="normal" in="SourceGraphic" in2="effect1_dropShadow" result="shape"/>
</filter>
</defs>
</svg>
