<svg width="32" height="32" viewBox="0 0 32 32" fill="none" xmlns="http://www.w3.org/2000/svg">
<rect width="32" height="32" rx="16" fill="#082069"/>
<path opacity="0.68" d="M23.4668 11.0814C23.7108 9.52543 23.4651 8.46695 22.6236 7.50787C21.6971 6.45224 20.0234 6 17.882 6H11.6659C11.2284 6 10.8556 6.3184 10.7875 6.75088L8.19898 23.1643C8.14805 23.4882 8.39841 23.781 8.72598 23.781H12.5635L12.2987 25.4606C12.2541 25.7439 12.4729 26 12.7597 26H15.9944C16.3772 26 16.7031 25.7215 16.7628 25.3432L16.7946 25.1786L17.4039 21.3146L17.4432 21.1011C17.5029 20.7231 17.8288 20.4442 18.2116 20.4442H18.6954C21.8291 20.4442 24.2828 19.1712 24.9997 15.4893C25.2993 13.9509 25.1443 12.6667 24.3521 11.7638C24.1127 11.4913 23.8145 11.2655 23.4668 11.0814Z" fill="white"/>
<path opacity="0.7" d="M23.4668 11.0814C23.7108 9.52543 23.4651 8.46695 22.6236 7.50787C21.6971 6.45224 20.0234 6 17.882 6H11.6659C11.2284 6 10.8556 6.3184 10.7875 6.75088L8.19898 23.1643C8.14805 23.4882 8.39841 23.781 8.72598 23.781H12.5635L13.5275 17.6682L13.4975 17.8599C13.5658 17.4276 13.9351 17.109 14.3729 17.109H16.1969C19.779 17.109 22.5839 15.6537 23.4032 11.445C23.4276 11.3207 23.4482 11.1999 23.4668 11.0814Z" fill="white"/>
<path d="M14.5631 11.102C14.6041 10.842 14.7711 10.6289 14.9958 10.5214C15.0979 10.4725 15.2122 10.4452 15.3317 10.4452H20.2043C20.7816 10.4452 21.3198 10.4831 21.8118 10.5623C21.9524 10.5849 22.0893 10.611 22.2223 10.6406C22.3551 10.6701 22.4843 10.7029 22.6091 10.7396C22.6717 10.7577 22.733 10.777 22.7935 10.797C23.0351 10.8773 23.2602 10.9718 23.4672 11.0816C23.7112 9.52564 23.4655 8.46715 22.624 7.50808C21.6971 6.45224 20.0234 6 17.882 6H11.6659C11.2284 6 10.8556 6.3184 10.7875 6.75088L8.19898 23.1643C8.14805 23.4882 8.39841 23.781 8.72598 23.781H12.5635L13.5275 17.6682L14.5631 11.102Z" fill="white"/>
</svg>
