<svg width="40" height="40" viewBox="0 0 40 40" fill="none" xmlns="http://www.w3.org/2000/svg">
<rect width="40" height="40" rx="20" fill="#419FD9"/>
<rect width="40" height="40" rx="20" fill="url(#paint0_linear)"/>
<path d="M8.98947 19.5604C14.8056 16.9732 18.6839 15.2675 20.6244 14.4434C26.165 12.0905 27.3162 11.6817 28.0666 11.6681C28.2317 11.6653 28.6007 11.707 28.8397 11.9051C29.0416 12.0723 29.0971 12.2982 29.1237 12.4567C29.1502 12.6153 29.1833 12.9764 29.157 13.2586C28.8568 16.4796 27.5576 24.2962 26.8967 27.9038C26.617 29.4303 26.0664 29.9421 25.5332 29.9922C24.3746 30.1011 23.4949 29.2105 22.3727 28.4594C20.6168 27.2842 19.6248 26.5526 17.9204 25.4058C15.9506 24.0804 17.2275 23.352 18.3501 22.1616C18.6439 21.85 23.7486 17.1093 23.8474 16.6792C23.8598 16.6254 23.8712 16.4249 23.7546 16.319C23.6379 16.2132 23.4657 16.2494 23.3415 16.2782C23.1654 16.319 20.3603 18.212 14.9261 21.9574C14.1299 22.5156 13.4087 22.7876 12.7625 22.7733C12.0502 22.7576 10.6799 22.3621 9.66122 22.024C8.4118 21.6093 7.41878 21.3901 7.50525 20.6858C7.55029 20.319 8.04503 19.9439 8.98947 19.5604Z" fill="white"/>
<defs>
<linearGradient id="paint0_linear" x1="20" y1="0" x2="20" y2="39.7032" gradientUnits="userSpaceOnUse">
<stop stop-color="#2AABEE"/>
<stop offset="1" stop-color="#229ED9"/>
</linearGradient>
</defs>
</svg>
