<svg width="38" height="38" viewBox="0 0 38 38" fill="none" xmlns="http://www.w3.org/2000/svg">
<rect width="38" height="38" rx="19" fill="url(#paint0_radial)"/>
<path fill-rule="evenodd" clip-rule="evenodd" d="M15.1366 16.8668C15.1248 16.871 15.1119 16.8715 15.0997 16.8681C15.0876 16.8648 15.0768 16.8577 15.0688 16.8479C14.3194 15.8556 14.1311 14.1496 14.0853 13.4943C14.0758 13.3681 13.934 13.2972 13.8204 13.3606C11.5062 14.6605 9.35889 17.7355 9.35889 20.7044C9.35889 25.8048 12.9015 30.0837 18.9999 30.0837C24.7136 30.0837 28.641 25.6736 28.641 20.705C28.641 14.2035 23.9949 9.88389 19.8567 7.9312C19.8325 7.91978 19.8057 7.91512 19.779 7.91767C19.7524 7.92023 19.7269 7.92991 19.7054 7.94572C19.6838 7.96152 19.6668 7.98285 19.6564 8.00747C19.6459 8.03209 19.6422 8.05911 19.6458 8.08562C20.1787 11.5893 19.4424 15.3999 15.1366 16.8668Z" fill="white"/>
<defs>
<radialGradient id="paint0_radial" cx="0" cy="0" r="1" gradientUnits="userSpaceOnUse" gradientTransform="translate(19 38) scale(40.5965)">
<stop stop-color="#FF7854"/>
<stop offset="1" stop-color="#FD267D"/>
</radialGradient>
</defs>
</svg>
