<svg width="28" height="28" viewBox="0 0 28 28" fill="none" xmlns="http://www.w3.org/2000/svg">
<rect width="28" height="28" rx="14" fill="#5181B8"/>
<path fill-rule="evenodd" clip-rule="evenodd" d="M22.9063 9.64517C23.0362 9.21252 22.9064 8.89453 22.2887 8.89453H20.2466C19.7273 8.89453 19.4881 9.1692 19.3583 9.47217C19.3583 9.47217 18.3197 12.0034 16.8485 13.6476C16.3725 14.1236 16.1562 14.2749 15.8965 14.2749C15.7667 14.2749 15.5788 14.1236 15.5788 13.6909V9.64517C15.5788 9.12588 15.4282 8.89453 14.9954 8.89453H11.7863C11.4619 8.89453 11.2667 9.1355 11.2667 9.36393C11.2667 9.85624 12.0022 9.96972 12.078 11.3543V14.3616C12.078 15.021 11.959 15.1406 11.6994 15.1406C11.0071 15.1406 9.32318 12.5978 8.32428 9.68849C8.12853 9.12296 7.93219 8.89453 7.41028 8.89453H5.36813C4.78466 8.89453 4.66797 9.1692 4.66797 9.47217C4.66797 10.013 5.3604 12.6958 7.89164 16.2439C9.57932 18.6668 11.9567 19.9805 14.1202 19.9805C15.4184 19.9805 15.5788 19.6887 15.5788 19.1862V17.3548C15.5788 16.7714 15.7018 16.655 16.1127 16.655C16.4158 16.655 16.935 16.8064 18.1467 17.9746C19.5313 19.3591 19.7594 19.9805 20.5383 19.9805H22.5805C23.164 19.9805 23.4557 19.6887 23.2874 19.113C23.1033 18.5391 22.4422 17.7068 21.565 16.7199C21.089 16.1573 20.375 15.5515 20.1588 15.2487C19.8558 14.8592 19.9423 14.6862 20.1588 14.3402C20.1588 14.3402 22.6467 10.8353 22.9063 9.64531V9.64517Z" fill="white"/>
</svg>
