<svg width="24" height="24" viewBox="0 0 24 24" fill="none" xmlns="http://www.w3.org/2000/svg">
<rect width="24" height="24" rx="12" fill="#0DC143"/>
<path d="M17.3772 6.60574C16.0907 5.28142 14.3123 4.5625 12.4961 4.5625C8.63663 4.5625 5.53393 7.70304 5.57177 11.5247C5.57177 12.7355 5.91231 13.9084 6.47988 14.9679L5.49609 18.5625L9.16636 17.6166C10.188 18.1841 11.3231 18.449 12.4583 18.449C16.2799 18.449 19.3826 15.3084 19.3826 11.4868C19.3826 9.63277 18.6637 7.89223 17.3772 6.60574ZM12.4961 17.276C11.4745 17.276 10.4528 17.0111 9.58258 16.4814L9.35555 16.3679L7.16096 16.9355L7.72853 14.7787L7.57717 14.5517C5.91231 11.8652 6.7069 8.30845 9.43123 6.64358C12.1556 4.97872 15.6745 5.77331 17.3393 8.49764C19.0042 11.222 18.2096 14.7409 15.4853 16.4057C14.615 16.9733 13.5556 17.276 12.4961 17.276ZM15.8258 13.076L15.4096 12.8868C15.4096 12.8868 14.8042 12.622 14.4258 12.4328C14.388 12.4328 14.3501 12.3949 14.3123 12.3949C14.1988 12.3949 14.1231 12.4328 14.0474 12.4706C14.0474 12.4706 14.0096 12.5084 13.4799 13.1139C13.442 13.1895 13.3664 13.2274 13.2907 13.2274H13.2528C13.215 13.2274 13.1393 13.1895 13.1015 13.1517L12.9123 13.076C12.4961 12.8868 12.1177 12.6598 11.815 12.3571C11.7393 12.2814 11.6258 12.2057 11.5501 12.1301C11.2853 11.8652 11.0204 11.5625 10.8312 11.222L10.7934 11.1463C10.7556 11.1084 10.7556 11.0706 10.7177 10.9949C10.7177 10.9193 10.7177 10.8436 10.7556 10.8057C10.7556 10.8057 10.9069 10.6166 11.0204 10.503C11.0961 10.4274 11.1339 10.3139 11.2096 10.2382C11.2853 10.1247 11.3231 9.97331 11.2853 9.8598C11.2474 9.67061 10.7934 8.64899 10.6799 8.42196C10.6042 8.30845 10.5285 8.27061 10.415 8.23277H10.3015C10.2258 8.23277 10.1123 8.23277 9.9988 8.23277C9.92312 8.23277 9.84744 8.27061 9.77177 8.27061L9.73393 8.30845C9.65826 8.34628 9.58258 8.42196 9.5069 8.4598C9.43123 8.53547 9.39339 8.61115 9.31771 8.68682C9.05285 9.02736 8.9015 9.44358 8.9015 9.8598C8.9015 10.1625 8.97717 10.4652 9.09069 10.7301L9.12853 10.8436C9.46907 11.5625 9.92312 12.2057 10.5285 12.7733L10.6799 12.9247C10.7934 13.0382 10.9069 13.1139 10.9826 13.2274C11.7772 13.9084 12.6853 14.4003 13.7069 14.6652C13.8204 14.703 13.9718 14.703 14.0853 14.7409C14.1988 14.7409 14.3501 14.7409 14.4637 14.7409C14.6528 14.7409 14.8799 14.6652 15.0312 14.5895C15.1447 14.5139 15.2204 14.5139 15.2961 14.4382L15.3718 14.3625C15.4474 14.2868 15.5231 14.249 15.5988 14.1733C15.6745 14.0976 15.7501 14.022 15.788 13.9463C15.8637 13.7949 15.9015 13.6057 15.9393 13.4166C15.9393 13.3409 15.9393 13.2274 15.9393 13.1517C15.9393 13.1517 15.9015 13.1139 15.8258 13.076Z" fill="white"/>
</svg>
