<svg width="45" height="45" viewBox="0 0 45 45" fill="none" xmlns="http://www.w3.org/2000/svg">
<rect width="45" height="45" rx="22.5" fill="#FF0000"/>
<path fill-rule="evenodd" clip-rule="evenodd" d="M33.5043 13.2547C34.709 13.579 35.6589 14.5289 35.9832 15.7336C36.5855 17.9344 36.5624 22.5215 36.5624 22.5215C36.5624 22.5215 36.5624 27.0855 35.9832 29.2863C35.6589 30.491 34.709 31.4409 33.5043 31.7652C31.3034 32.3444 22.4999 32.3444 22.4999 32.3444C22.4999 32.3444 13.7196 32.3444 11.4956 31.7421C10.2909 31.4177 9.34102 30.4679 9.01668 29.2632C8.4375 27.0855 8.4375 22.4984 8.4375 22.4984C8.4375 22.4984 8.4375 17.9344 9.01668 15.7336C9.34102 14.5289 10.314 13.5559 11.4956 13.2315C13.6964 12.6523 22.4999 12.6523 22.4999 12.6523C22.4999 12.6523 31.3034 12.6523 33.5043 13.2547ZM27.0161 22.4977L19.6953 26.7141V18.2812L27.0161 22.4977Z" fill="white"/>
</svg>
