<svg width="102" height="103" viewBox="0 0 102 103" fill="none" xmlns="http://www.w3.org/2000/svg">
<path d="M11.4773 49.9113C14.4274 53.901 18.9991 56.595 23.0152 59.346C27.605 62.4899 32.0782 65.5102 36.2471 69.2847C42.953 75.1032 47.6877 81.8468 50.236 89.718C49.2855 88.2793 48.2184 86.717 47.0528 85.4811C45.6541 83.998 43.1453 85.4299 44.3381 87.3408C47.0641 91.3083 49.2345 95.3327 50.9749 99.7628C51.8542 102.203 54.9729 102.064 55.0974 99.6112C55.2208 94.3576 56.581 89.3387 58.4074 84.8141C59.6341 82.0227 55.3046 79.8008 54.1944 82.7158C53.5856 84.224 53.3174 85.878 52.9327 87.4085C51.3892 82.3257 48.4029 77.4361 44.9956 73.177C37.957 64.6365 28.5804 59.0013 19.8489 52.7579C15.9404 49.9056 10.9466 45.041 13.5436 40.2567C15.5047 36.3057 20.666 34.2404 24.8598 33.0876C34.1345 30.6458 44.3519 32.2188 53.7612 30.3506C58.1881 29.445 63.2419 27.4811 64.4946 22.5635C65.3626 19.1764 64.0703 14.7908 60.3054 12.737C59.2836 12.2996 58.101 13.4148 59.141 14.3021C63.4264 18.2001 60.6234 23.4122 56.8958 25.0594C52.6217 26.9885 47.3699 26.804 42.5843 27.1139C33.6672 27.3503 24.2929 27.3174 16.7575 31.3881C13.3705 33.1811 10.0198 35.874 8.94589 39.6889C8.07793 43.0761 9.23556 46.8881 11.4773 49.9113Z" fill="#FFC727"/>
</svg>
