<svg width="60" height="65" viewBox="0 0 60 65" fill="none" xmlns="http://www.w3.org/2000/svg">
<path d="M27.3124 5.17262C15.4958 8.63972 9.5965 21.8978 13.8087 33.1554C18.2624 44.8127 30.2098 49.9122 42.012 50.7092C39.609 48.7642 37.3657 46.8578 35.1613 44.79C32.9568 42.7222 36.324 39.2665 38.3299 41.4571C41.7378 44.8392 45.2276 48.5825 48.873 51.6805C49.8739 52.4339 49.485 54.0472 48.4533 54.8227C44.7239 57.679 40.5933 60.0972 36.26 61.9544C35.7033 62.1616 34.905 61.9691 34.5038 61.531C34.2234 61.2927 34.1027 61.0929 34.0208 60.7317C34.0597 60.5704 33.9 60.5319 33.9389 60.3706C33.896 59.8481 34.2501 59.08 34.8457 58.7115C36.9909 57.5216 39.0152 56.132 41.1993 54.7808C27.0964 55.819 13.3028 48.5673 8.47455 34.2592C4.09048 20.9117 11.7645 4.49681 26.7046 3.48977C28.1374 3.1524 28.387 4.9196 27.3124 5.17262Z" fill="#FFC727"/>
</svg>
