<svg width="35" height="35" viewBox="0 0 35 35" fill="none" xmlns="http://www.w3.org/2000/svg">
<rect width="35" height="35" rx="17.5" fill="#FF9201"/>
<path d="M23.7367 20.0204C23.2503 19.355 22.7285 18.8136 22.7285 17.5752V13.4645C22.7285 11.7223 22.8548 10.1229 21.5565 8.92431C20.5346 7.95231 18.8369 7.60938 17.5386 7.60938C14.9994 7.60938 12.1668 8.54609 11.5728 11.6501C11.5099 11.9798 11.7521 12.1524 11.9715 12.2009L14.5571 12.4777C14.7992 12.4655 14.9741 12.2301 15.0209 11.993C15.2426 10.9234 16.1482 10.4096 17.1658 10.4096C17.7146 10.4096 18.3378 10.6081 18.6626 11.0949C19.0366 11.6369 18.9864 12.3817 18.9864 13.0075V13.352C17.4399 13.523 15.417 13.6366 13.9687 14.2645C12.2981 14.9801 11.125 16.4362 11.125 18.5765C11.125 21.3193 12.8706 22.6905 15.118 22.6905C17.0147 22.6905 18.0527 22.2478 19.5159 20.7724C20.0013 21.4682 20.1601 21.8034 21.0453 22.5317C21.2438 22.6365 21.4997 22.6266 21.6756 22.4689L21.6762 22.4683L21.6823 22.475C22.2151 22.0063 23.1824 21.1749 23.7279 20.7229C23.9457 20.5459 23.9071 20.2597 23.7367 20.0204ZM18.4873 18.8351C18.0638 19.5794 17.3892 20.0348 16.6397 20.0348C15.6177 20.0348 15.0176 19.2629 15.0176 18.1211C15.0176 15.8733 17.0572 15.4653 18.9859 15.4653V16.0348H18.9864C18.9864 17.0631 19.0113 17.9193 18.4873 18.8351Z" fill="white"/>
<path d="M26.9226 24.5083C24.3686 26.392 20.6649 27.3942 17.4751 27.3942C13.0064 27.3942 8.98107 25.743 5.9352 22.9941C5.69628 22.7779 5.90952 22.4828 6.19656 22.6506C9.48326 24.5625 13.547 25.7133 17.7441 25.7133C20.5758 25.7133 23.6879 25.1264 26.5515 23.9115C26.9835 23.7289 27.3455 24.1967 26.9226 24.5083Z" fill="white"/>
<path d="M27.9874 23.2938C27.661 22.8762 25.8273 23.0959 25.005 23.1952C24.7549 23.2242 24.7164 23.0072 24.9412 22.848C26.4033 21.8214 28.7993 22.1185 29.078 22.4617C29.3588 22.8096 29.0047 25.2105 27.6341 26.3558C27.4232 26.5326 27.223 26.4395 27.3161 26.2063C27.6244 25.4356 28.315 23.7122 27.9874 23.2938Z" fill="white"/>
</svg>
