<svg width="304" height="312" viewBox="0 0 304 312" fill="none" xmlns="http://www.w3.org/2000/svg">
<path d="M75.6738 236.102C75.6738 236.102 110.597 266.328 148.255 273.172C185.914 280.017 223.802 262.857 242.986 228.132C262.169 193.406 240.458 150.772 243.526 106.435C246.593 62.0982 226.276 22.8197 180.813 20.9317C135.349 19.0438 131.735 51.2372 89.1892 73.8146C46.6436 96.3921 -2.08068 162.836 75.6738 236.102Z" fill="#0187FF"/>
<path opacity="0.7" d="M75.6738 236.102C75.6738 236.102 110.597 266.328 148.255 273.172C185.914 280.017 223.802 262.857 242.986 228.132C262.169 193.406 240.458 150.772 243.526 106.435C246.593 62.0982 226.276 22.8197 180.813 20.9317C135.349 19.0438 131.735 51.2372 89.1892 73.8146C46.6436 96.3921 -2.08068 162.836 75.6738 236.102Z" fill="white"/>
<path d="M102.527 159.79C97.0271 157.091 91.3422 154.788 85.5151 152.898C77.1184 150.313 67.2111 152.68 66.9929 155.477C66.7746 158.274 68.2679 156.993 70.2264 160.025C72.1849 163.058 71.3004 170.145 74.1031 176.606C76.9059 183.068 85.2969 186.295 85.2969 186.295L102.527 159.79Z" fill="#0187FF" stroke="#263238" stroke-linecap="round" stroke-linejoin="round"/>
<path opacity="0.3" d="M96.9266 166.039C96.9266 166.039 84.0042 157.855 76.4689 155.052C68.9337 152.25 68.5029 156.345 68.5029 156.345C69.7426 156.8 70.8065 157.635 71.5421 158.732C72.2777 159.829 72.6473 161.13 72.5979 162.45C72.5979 167.286 75.0159 177.302 80.8913 179.37C86.7667 181.437 96.9266 166.039 96.9266 166.039Z" fill="black"/>
<path d="M189.133 175.184C192.511 173.901 194.132 169.921 192.754 166.294C191.377 162.668 187.522 160.768 184.145 162.051C180.767 163.334 179.146 167.314 180.524 170.94C181.901 174.567 185.756 176.467 189.133 175.184Z" fill="#0187FF" stroke="#263238" stroke-linecap="round" stroke-linejoin="round"/>
<path d="M96.543 243.775L103.791 265.52C103.988 266.109 104.365 266.621 104.869 266.984C105.373 267.347 105.978 267.542 106.6 267.541H117.897C118.475 267.542 119.04 267.373 119.523 267.056C120.006 266.738 120.385 266.286 120.613 265.755L125.667 254.027" fill="#0187FF"/>
<path opacity="0.3" d="M100.177 243.773L106.173 265.517C106.286 266.063 106.576 266.557 106.997 266.922C107.418 267.287 107.948 267.504 108.505 267.539H117.872C118.386 267.513 118.88 267.326 119.283 267.006C119.687 266.686 119.981 266.248 120.123 265.753L124.316 254.025" fill="black"/>
<path d="M96.543 243.775L103.791 265.52C103.988 266.109 104.365 266.621 104.869 266.984C105.373 267.347 105.978 267.542 106.6 267.541H117.897C118.475 267.542 119.04 267.373 119.523 267.056C120.006 266.738 120.385 266.286 120.613 265.755L125.667 254.027" stroke="#263238" stroke-linecap="round" stroke-linejoin="round"/>
<path d="M151.058 243.775L143.816 265.52C143.619 266.109 143.242 266.621 142.738 266.984C142.234 267.347 141.629 267.542 141.008 267.541H129.722C129.144 267.542 128.578 267.373 128.096 267.056C127.613 266.738 127.234 266.286 127.005 265.755L121.951 254.027" fill="#263238"/>
<path d="M151.058 243.775L143.816 265.52C143.619 266.109 143.242 266.621 142.738 266.984C142.234 267.347 141.629 267.542 141.008 267.541H129.722C129.144 267.542 128.578 267.373 128.096 267.056C127.613 266.738 127.234 266.286 127.005 265.755L121.951 254.027" stroke="#263238" stroke-linecap="round" stroke-linejoin="round"/>
<path d="M175.059 243.775L167.811 265.52C167.614 266.109 167.237 266.621 166.733 266.984C166.229 267.347 165.624 267.542 165.002 267.541H153.705C153.127 267.542 152.562 267.373 152.079 267.056C151.596 266.738 151.217 266.286 150.989 265.755L145.935 254.027" fill="#0187FF"/>
<path opacity="0.3" d="M169.924 243.773L164.968 265.517C164.692 266.723 163.922 267.539 163.049 267.539H155.324C154.52 267.539 153.791 266.838 153.469 265.753L148.668 254.266" fill="black"/>
<path d="M175.059 243.775L167.811 265.52C167.614 266.109 167.237 266.621 166.733 266.984C166.229 267.347 165.624 267.542 165.002 267.541H153.705C153.127 267.542 152.562 267.373 152.079 267.056C151.596 266.738 151.217 266.286 150.989 265.755L145.935 254.027" stroke="#263238" stroke-linecap="round" stroke-linejoin="round"/>
<path d="M136.326 258.082C170.637 258.082 198.451 232.857 198.451 201.74C198.451 170.623 170.637 145.398 136.326 145.398C102.015 145.398 74.2002 170.623 74.2002 201.74C74.2002 232.857 102.015 258.082 136.326 258.082Z" fill="#0187FF"/>
<path opacity="0.3" d="M179.114 163.242C182.757 170.467 184.655 178.446 184.656 186.537C184.656 217.654 156.841 242.879 122.531 242.879C109.762 242.944 97.2474 239.318 86.4912 232.438C97.3231 246.974 115.662 256.56 136.458 256.56C169.769 256.56 196.763 232.087 196.763 201.895C196.729 186.784 189.986 173.132 179.114 163.242Z" fill="black"/>
<path d="M136.326 258.082C170.637 258.082 198.451 232.857 198.451 201.74C198.451 170.623 170.637 145.398 136.326 145.398C102.015 145.398 74.2002 170.623 74.2002 201.74C74.2002 232.857 102.015 258.082 136.326 258.082Z" stroke="#263238" stroke-linecap="round" stroke-linejoin="round"/>
<path d="M193.225 206.792C191.87 218.141 186.638 228.439 178.758 236.572" stroke="#0187FF" stroke-width="2" stroke-linecap="round" stroke-linejoin="round"/>
<path d="M192.197 189.317C193.114 193.118 193.577 197.014 193.576 200.924" stroke="#0187FF" stroke-width="2" stroke-linecap="round" stroke-linejoin="round"/>
<path d="M120.924 148.912C126.043 147.715 131.283 147.114 136.54 147.12C139.906 147.119 143.267 147.365 146.596 147.855" stroke="#263238" stroke-width="4" stroke-linecap="round" stroke-linejoin="round"/>
<path d="M148.514 188.243C148.514 188.243 154.544 184.148 154.762 176.613C154.981 169.078 145.068 158.097 137.102 153.571C129.136 149.045 123.318 149.912 123.105 153.14C122.893 156.368 120.09 160.032 119.016 166.275C117.942 172.518 117.505 181.782 125.908 184.797" fill="#0187FF"/>
<path d="M148.514 188.243C148.514 188.243 154.544 184.148 154.762 176.613C154.981 169.078 145.068 158.097 137.102 153.571C129.136 149.045 123.318 149.912 123.105 153.14C122.893 156.368 120.09 160.032 119.016 166.275C117.942 172.518 117.505 181.782 125.908 184.797" stroke="#263238" stroke-linecap="round" stroke-linejoin="round"/>
<path opacity="0.3" d="M135.539 185.827L136.773 186.011C142.069 186.775 143.93 183.317 143.775 178.125C143.562 170.803 133.873 155.296 129.778 153.142C125.683 150.988 124.397 154.003 124.397 154.003C124.397 154.003 124.971 154.388 122.955 161.079C122.025 164.169 118.561 174.943 121.99 179.722C125.023 183.943 130.657 185.098 135.539 185.827Z" fill="black"/>
<path opacity="0.3" d="M152.694 178.405H152.613C152.538 178.395 152.466 178.37 152.4 178.332C152.334 178.294 152.277 178.244 152.231 178.183C152.185 178.123 152.152 178.054 152.132 177.981C152.113 177.907 152.109 177.831 152.119 177.756C152.181 177.314 152.218 176.869 152.228 176.423C152.343 172.403 149.064 166.631 143.671 161.307C143.617 161.254 143.574 161.19 143.544 161.121C143.515 161.051 143.5 160.976 143.499 160.9C143.499 160.825 143.513 160.75 143.541 160.679C143.57 160.609 143.612 160.545 143.665 160.491C143.718 160.437 143.782 160.395 143.851 160.365C143.921 160.336 143.996 160.32 144.072 160.32C144.147 160.319 144.222 160.333 144.293 160.362C144.363 160.39 144.427 160.432 144.481 160.486C150.178 166.114 153.503 172.081 153.377 176.452C153.365 176.94 153.326 177.427 153.262 177.911C153.243 178.048 153.175 178.173 153.07 178.264C152.966 178.355 152.832 178.405 152.694 178.405Z" fill="black"/>
<path opacity="0.3" d="M149.606 185.332C149.497 185.332 149.39 185.302 149.298 185.244C149.206 185.186 149.132 185.103 149.086 185.005C149.039 184.907 149.021 184.798 149.033 184.69C149.046 184.582 149.089 184.48 149.158 184.396C150.104 183.236 150.86 181.933 151.398 180.536C151.452 180.394 151.56 180.279 151.699 180.216C151.838 180.154 151.996 180.149 152.138 180.203C152.281 180.257 152.396 180.365 152.458 180.504C152.521 180.643 152.526 180.801 152.472 180.944C151.891 182.456 151.073 183.865 150.048 185.119C149.994 185.185 149.927 185.238 149.851 185.275C149.774 185.312 149.69 185.331 149.606 185.332Z" fill="black"/>
<path opacity="0.3" d="M107.78 212.64C109.479 205.833 103.558 198.493 94.5561 196.247C85.5542 194.001 76.8796 197.699 75.1811 204.506C73.4825 211.314 79.403 218.654 88.405 220.9C97.4069 223.146 106.081 219.448 107.78 212.64Z" fill="black"/>
<path d="M106.972 211.406C108.671 204.599 102.75 197.259 93.7485 195.013C84.7466 192.767 76.072 196.465 74.3734 203.272C72.6748 210.08 78.5954 217.419 87.5974 219.666C96.5993 221.912 105.274 218.214 106.972 211.406Z" fill="#0187FF" stroke="#263238" stroke-linecap="round" stroke-linejoin="round"/>
<path d="M85.6009 205.282C85.7043 206.821 85.1127 208.119 84.2857 208.153C83.4587 208.188 82.6948 207.005 82.5627 205.465C82.4306 203.926 83.0509 202.622 83.8837 202.594C84.7165 202.565 85.4975 203.737 85.6009 205.282Z" stroke="#263238" stroke-linecap="round" stroke-linejoin="round"/>
<path d="M96.9837 208.137C97.0871 209.682 96.4955 210.975 95.6685 211.009C94.8415 211.044 94.0776 209.86 93.9455 208.316C93.8134 206.771 94.4337 205.478 95.2665 205.444C96.0992 205.409 96.8631 206.593 96.9837 208.137Z" stroke="#263238" stroke-linecap="round" stroke-linejoin="round"/>
<path d="M115.77 212.128C115.649 213.234 115.391 214.32 115.001 215.362C111.704 224.27 99.7696 228.123 87.9785 224.287" stroke="#263238" stroke-width="3" stroke-linecap="round" stroke-linejoin="round"/>
<path d="M113.847 211.284H117.505" stroke="#263238" stroke-width="3" stroke-linecap="round" stroke-linejoin="round"/>
<path d="M90.5402 187.438C90.1382 189.11 89.1101 190.31 88.2429 190.092C87.3756 189.873 86.9966 188.369 87.4044 186.68C87.8121 184.992 88.8344 183.809 89.7017 184.021C90.5689 184.234 90.948 185.761 90.5402 187.438Z" fill="#263238" stroke="#263238" stroke-linecap="round" stroke-linejoin="round"/>
<path d="M101.133 189.749C101.537 188.072 101.162 186.543 100.296 186.334C99.4292 186.125 98.399 187.316 97.9947 188.993C97.5904 190.671 97.9651 192.2 98.8316 192.409C99.6982 192.617 100.728 191.427 101.133 189.749Z" fill="#263238" stroke="#263238" stroke-linecap="round" stroke-linejoin="round"/>
<path d="M116.948 250.771L123.266 265.761C123.493 266.297 123.872 266.755 124.357 267.076C124.843 267.398 125.412 267.57 125.994 267.57H137.481C138.057 267.569 138.622 267.401 139.104 267.084C139.586 266.768 139.966 266.318 140.197 265.79L147.089 249.864H146.791" fill="#0187FF"/>
<path opacity="0.3" d="M130.295 248.858C126.654 248.858 122.415 249.335 118.986 248.542L124.89 265.732C125.031 266.231 125.324 266.674 125.729 266.998C126.134 267.323 126.63 267.513 127.148 267.541H136.613C137.124 267.513 137.615 267.326 138.016 267.007C138.417 266.688 138.709 266.253 138.852 265.761L144.567 248.226L142.27 248.542C134.981 249.335 135.171 248.858 130.295 248.858Z" fill="black"/>
<path d="M116.948 250.771L123.266 265.761C123.493 266.297 123.872 266.755 124.357 267.076C124.843 267.398 125.412 267.57 125.994 267.57H137.481C138.057 267.569 138.622 267.401 139.104 267.084C139.586 266.768 139.966 266.318 140.197 265.79L147.089 249.864H146.791" stroke="#263238" stroke-linecap="round" stroke-linejoin="round"/>
<path d="M231.38 17.2676L199.613 63.0361C199.613 63.0361 196.897 69.5146 193.554 74.3217C190.211 79.1289 180.838 83.936 180.838 83.936C180.838 83.936 180.006 92.9186 177.289 96.0545C174.572 99.1903 168.72 97.3122 168.72 97.3122C168.72 97.3122 166.21 100.029 163.494 101.281C160.777 102.533 152.42 97.9383 152.42 97.9383C152.42 97.9383 159.938 106.088 160.984 108.805C162.029 111.521 163.913 113.819 160.57 116.328C157.228 118.838 153.46 115.283 153.46 115.283C153.46 115.283 155.137 120.716 150.33 121.762C145.523 122.807 140.285 112.354 138.194 108.805C136.104 105.255 130.044 91.8733 129.005 91.2473C127.965 90.6213 126.501 87.2787 128.591 84.1428C130.682 81.007 145.511 60.9455 147.182 59.5154C148.854 58.0853 180.838 50.4984 180.838 50.4984L192.963 17.0608" fill="white"/>
<path opacity="0.2" d="M196.346 63.5352C196.346 63.5352 192.9 73.8732 189.167 75.8833C185.434 77.8935 164.183 83.3496 155.855 82.201C147.528 81.0523 142.933 77.8935 142.933 77.8935C142.933 77.8935 138.338 83.924 136.328 85.9341C134.928 87.2341 133.263 88.214 131.446 88.8058C131.446 88.8058 141.44 113.91 148.625 121.681C149.183 121.853 149.776 121.881 150.348 121.761C155.155 120.716 153.478 115.283 153.478 115.283C153.478 115.283 157.24 118.832 160.588 116.328C163.936 113.824 162.047 111.521 161.001 108.804C159.956 106.087 152.409 97.9377 152.409 97.9377C152.409 97.9377 160.766 102.532 163.483 101.28C166.199 100.028 168.709 97.3059 168.709 97.3059C168.709 97.3059 174.561 99.1897 177.278 96.0539C179.995 92.918 180.827 83.9355 180.827 83.9355C180.827 83.9355 190.229 79.1283 193.578 74.3211C196.926 69.514 199.637 63.0355 199.637 63.0355L212.726 44.1802L196.346 63.5352Z" fill="black"/>
<path d="M231.38 17.2676L199.613 63.0361C199.613 63.0361 196.897 69.5146 193.554 74.3217C190.211 79.1289 180.838 83.936 180.838 83.936C180.838 83.936 180.006 92.9186 177.289 96.0545C174.572 99.1903 168.72 97.3122 168.72 97.3122C168.72 97.3122 166.21 100.029 163.494 101.281C160.777 102.533 152.42 97.9383 152.42 97.9383C152.42 97.9383 159.938 106.088 160.984 108.805C162.029 111.521 163.913 113.819 160.57 116.328C157.228 118.838 153.46 115.283 153.46 115.283C153.46 115.283 155.137 120.716 150.33 121.762C145.523 122.807 140.285 112.354 138.194 108.805C136.104 105.255 130.044 91.8733 129.005 91.2473C127.965 90.6213 126.501 87.2787 128.591 84.1428C130.682 81.007 145.511 60.9455 147.182 59.5154C148.854 58.0853 180.838 50.4984 180.838 50.4984L192.963 17.0608" stroke="#263238" stroke-linecap="round" stroke-linejoin="round"/>
<path d="M122.732 139.312L123.565 142.448L136.522 139.312L148.646 107.546L140.703 104.829L122.732 139.312Z" fill="white" stroke="#263238" stroke-linecap="round" stroke-linejoin="round"/>
<path d="M126.702 97.0994L144.673 103.79L135.897 143.494L114.79 137.015L126.702 97.0994Z" fill="white" stroke="#263238" stroke-linecap="round" stroke-linejoin="round"/>
<path d="M115.496 134.643L134.225 140.151L142.375 104.83L125.966 99.5574L115.496 134.643Z" fill="#0187FF" stroke="#263238" stroke-linecap="round" stroke-linejoin="round"/>
<path d="M125.892 108.294C125.077 108.078 124.225 108.039 123.393 108.179L118.5 124.576C119.208 125.267 120.08 125.766 121.033 126.029C124.869 127.086 129.073 123.968 130.417 119.068C131.761 114.169 129.722 109.345 125.892 108.294Z" fill="white" stroke="#263238" stroke-linecap="round" stroke-linejoin="round"/>
<path d="M125.197 111.01C125.172 110.999 125.152 110.98 125.139 110.956C125.127 110.932 125.123 110.904 125.128 110.878L125.346 110.028C125.359 109.992 125.364 109.954 125.361 109.916C125.357 109.878 125.345 109.841 125.325 109.808C125.305 109.776 125.278 109.748 125.246 109.727C125.214 109.707 125.177 109.694 125.139 109.689L124.226 109.471C124.19 109.456 124.152 109.45 124.113 109.453C124.075 109.457 124.037 109.469 124.004 109.489C123.972 109.509 123.944 109.536 123.923 109.569C123.903 109.602 123.891 109.639 123.887 109.678L123.709 110.556C123.702 110.583 123.687 110.606 123.665 110.621C123.642 110.637 123.616 110.645 123.589 110.642C123.277 110.611 122.964 110.611 122.652 110.642L120.981 116.254C122.285 117.609 124.318 118.287 124.048 119.424C123.893 120.067 123.307 120.573 122.279 120.343C122.064 120.314 121.858 120.239 121.674 120.124C121.491 120.008 121.334 119.854 121.215 119.673C121.097 119.492 121.018 119.287 120.986 119.072C120.953 118.858 120.967 118.639 121.027 118.43L121.079 118.201C121.107 118.074 121.033 117.971 120.855 117.931L120.504 117.845L119.511 121.164C119.91 121.527 120.376 121.808 120.883 121.991C120.909 122.003 120.93 122.023 120.943 122.048C120.955 122.073 120.959 122.102 120.952 122.129L120.746 122.858C120.73 122.894 120.723 122.933 120.725 122.972C120.728 123.011 120.74 123.049 120.76 123.082C120.78 123.115 120.808 123.143 120.842 123.163C120.875 123.183 120.913 123.195 120.952 123.197L121.9 123.427C121.933 123.445 121.97 123.455 122.008 123.456C122.046 123.457 122.083 123.45 122.117 123.434C122.152 123.418 122.182 123.395 122.206 123.366C122.23 123.337 122.247 123.303 122.256 123.266L122.411 122.543C122.42 122.516 122.437 122.492 122.459 122.476C122.482 122.459 122.509 122.451 122.537 122.451C124.559 122.663 125.932 121.67 126.357 119.901C126.69 118.488 126.213 117.287 124.737 116.156C123.387 115.134 121.963 114.628 122.21 113.583C122.382 112.859 123.043 112.526 123.933 112.739C124.153 112.774 124.363 112.857 124.549 112.981C124.734 113.106 124.89 113.269 125.006 113.459C125.123 113.65 125.196 113.863 125.222 114.085C125.248 114.306 125.226 114.531 125.156 114.743L125.116 114.904C125.116 115.002 125.174 115.088 125.352 115.134L127.034 115.536C127.07 115.549 127.109 115.554 127.147 115.55C127.185 115.547 127.221 115.534 127.254 115.515C127.287 115.495 127.314 115.468 127.335 115.435C127.356 115.403 127.369 115.367 127.373 115.329L127.5 114.795C127.885 113.112 127.075 111.682 125.197 111.01Z" fill="#263238"/>
<path d="M141.538 76.199C141.538 76.199 144.047 79.9608 144.467 83.3092C144.823 86.1631 144.155 89.0509 142.583 91.459C141.331 93.337 140.079 95.0083 139.033 97.9374C137.988 100.867 137.781 105.042 136.317 107.127C134.852 109.212 134.02 111.302 136.104 113.186C138.189 115.07 143.628 114.857 146.557 109.424C149.486 103.991 151.364 98.1384 153.242 96.0479C155.12 93.9573 161.185 89.1559 161.185 89.1559C161.185 89.1559 177.692 86.8586 180.828 83.9352C183.963 81.0119 186.68 73.0688 186.68 73.0688" fill="white"/>
<path opacity="0.2" d="M185.434 75.8848C185.434 75.8848 176.532 81.6281 169.64 83.3511C162.748 85.0741 158.44 85.0741 155.856 88.5201C153.271 91.9661 150.687 102.878 147.241 104.889C143.795 106.899 143.22 99.7195 138.338 101.155L138.178 101.213C137.701 103.453 137.282 105.75 136.317 107.134C134.852 109.225 134.02 111.31 136.104 113.193C138.189 115.077 143.628 114.865 146.557 109.432C149.486 103.998 151.364 98.1459 153.242 96.0553C155.12 93.9647 161.185 89.1633 161.185 89.1633C161.185 89.1633 177.692 86.866 180.828 83.9426C182.723 82.1737 184.463 78.5784 185.543 76.0054L185.434 75.8848Z" fill="black"/>
<path d="M141.538 76.199C141.538 76.199 144.047 79.9608 144.467 83.3092C144.823 86.1631 144.155 89.0509 142.583 91.459C141.331 93.337 140.079 95.0083 139.033 97.9374C137.988 100.867 137.781 105.042 136.317 107.127C134.852 109.212 134.02 111.302 136.104 113.186C138.189 115.07 143.628 114.857 146.557 109.424C149.486 103.991 151.364 98.1384 153.242 96.0479C155.12 93.9573 161.185 89.1559 161.185 89.1559C161.185 89.1559 177.692 86.8586 180.828 83.9352C183.963 81.0119 186.68 73.0688 186.68 73.0688" stroke="#263238" stroke-linecap="round" stroke-linejoin="round"/>
<path d="M135.059 86.6534C135.059 86.6534 140.498 89.5767 144.466 86.2341" stroke="#263238" stroke-linecap="round" stroke-linejoin="round"/>
<path d="M153.448 115.284L148.646 106.089" stroke="#263238" stroke-linecap="round" stroke-linejoin="round"/>
<path d="M168.709 97.3124C168.709 97.3124 172.471 94.1765 172.258 87.2788" stroke="#263238" stroke-linecap="round" stroke-linejoin="round"/>
</svg>
