<svg width="35" height="35" viewBox="0 0 35 35" fill="none" xmlns="http://www.w3.org/2000/svg">
<rect width="35" height="35" rx="17.5" fill="#1DA1F2"/>
<path d="M26.0781 13.7188C26.0781 13.9102 26.0781 14.1016 26.0781 14.2656C26.0781 19.9258 21.7578 26.4609 13.8828 26.4609C11.4492 26.4609 9.20703 25.75 7.29297 24.5469C7.62109 24.5742 7.97656 24.6016 8.30469 24.6016C10.3008 24.6016 12.1602 23.918 13.6367 22.7695C11.75 22.7422 10.1641 21.4844 9.64453 19.7891C9.91797 19.8438 10.1641 19.8711 10.4648 19.8711C10.8477 19.8711 11.2305 19.8164 11.5859 19.707C9.61719 19.3242 8.14062 17.6016 8.14062 15.5234C8.14062 15.4961 8.14062 15.4961 8.14062 15.4688C8.71484 15.7969 9.37109 15.9883 10.082 16.0156C8.93359 15.25 8.16797 13.9375 8.16797 12.4336C8.16797 11.6406 8.38672 10.9023 8.74219 10.2734C10.8477 12.8711 14.0195 14.5664 17.5742 14.7578C17.4922 14.457 17.4648 14.1016 17.4648 13.7734C17.4648 11.3945 19.3789 9.48047 21.7578 9.48047C22.9883 9.48047 24.1094 10 24.875 10.8203C25.8594 10.6289 26.7617 10.2734 27.6094 9.78125C27.2812 10.793 26.5977 11.6133 25.7227 12.1602C26.5977 12.0508 27.418 11.832 28.1836 11.4766C27.6367 12.3516 26.9258 13.1172 26.0781 13.7188Z" fill="white"/>
</svg>
