<svg width="25" height="25" viewBox="0 0 25 25" fill="none" xmlns="http://www.w3.org/2000/svg">
<rect width="25" height="25" rx="12.5" fill="#675DA9"/>
<path d="M18.6217 6.34481C18.2082 5.96468 16.5343 4.74756 12.8029 4.73089C12.8029 4.73089 8.40464 4.46413 6.26052 6.43151C5.06675 7.62528 4.6466 9.36925 4.60325 11.5367C4.5599 13.7008 4.50321 17.759 8.41464 18.8594H8.41798L8.41464 20.5367C8.41464 20.5367 8.3913 21.2169 8.83813 21.3536C9.37833 21.5204 9.69844 21.0035 10.2153 20.4466C10.4987 20.1399 10.8889 19.693 11.1857 19.3496C13.86 19.573 15.9174 19.0595 16.1508 18.9828C16.691 18.806 19.7488 18.4159 20.2456 14.3577C20.7592 10.1829 19.9955 7.53858 18.6217 6.34481ZM19.0752 14.0643C18.6551 17.4522 16.1775 17.6656 15.7206 17.8123C15.5272 17.8757 13.7199 18.3259 11.4457 18.1758C11.4457 18.1758 9.7518 20.2199 9.22494 20.7501C9.14157 20.8334 9.04487 20.8668 8.98151 20.8501C8.89148 20.8268 8.86481 20.7201 8.86814 20.5633C8.86814 20.3366 8.88148 17.7723 8.88148 17.7723C8.87814 17.7723 8.87814 17.7723 8.88148 17.7723C5.57027 16.8553 5.76367 13.4007 5.80035 11.5934C5.83703 9.78607 6.17716 8.3022 7.18753 7.30517C8.99819 5.66457 12.7362 5.90799 12.7362 5.90799C15.8907 5.92133 17.4013 6.87167 17.7514 7.18846C18.9151 8.18882 19.5087 10.573 19.0752 14.0643Z" fill="white"/>
<path d="M14.3381 11.6573C14.228 11.6573 14.1347 11.5706 14.128 11.4573C14.0913 10.7403 13.7545 10.3902 13.0676 10.3535C12.9509 10.3469 12.8609 10.2468 12.8675 10.1301C12.8742 10.0134 12.9742 9.92337 13.091 9.93004C13.9979 9.98005 14.5048 10.5002 14.5515 11.4339C14.5582 11.5506 14.4681 11.6507 14.3514 11.654C14.3447 11.6573 14.3414 11.6573 14.3381 11.6573Z" fill="white"/>
<path d="M15.4187 12.0155H15.4154C15.2987 12.0122 15.2053 11.9155 15.2086 11.7988C15.2253 11.0785 15.0186 10.4949 14.5784 10.0148C14.1416 9.5346 13.538 9.2745 12.7411 9.21781C12.6244 9.20781 12.5377 9.10777 12.5477 8.99106C12.5577 8.87436 12.6577 8.78766 12.7744 8.79766C13.6747 8.86435 14.385 9.1778 14.8919 9.73134C15.402 10.2882 15.6488 10.9851 15.6321 11.8088C15.6288 11.9255 15.5321 12.0155 15.4187 12.0155Z" fill="white"/>
<path d="M16.5274 12.451C16.4107 12.451 16.3173 12.3576 16.3173 12.2409C16.3073 10.9504 15.9372 9.96672 15.1835 9.22978C14.4399 8.50285 13.4963 8.13271 12.3859 8.12271C12.2691 8.12271 12.1758 8.02601 12.1758 7.9093C12.1758 7.79259 12.2725 7.69922 12.3859 7.69922C13.6096 7.70922 14.65 8.11937 15.4737 8.92633C16.3006 9.7333 16.7241 10.847 16.7375 12.2342C16.7408 12.3543 16.6474 12.451 16.5274 12.451C16.5307 12.451 16.5307 12.451 16.5274 12.451Z" fill="white"/>
<path d="M13.1194 14.2676C13.1194 14.2676 13.4162 14.2942 13.5762 14.0975L13.8863 13.7074C14.0364 13.514 14.3999 13.3906 14.7533 13.5873C14.9501 13.6974 15.3069 13.9174 15.5269 14.0808C15.7637 14.2542 16.2439 14.6544 16.2472 14.6577C16.4773 14.8511 16.5306 15.1345 16.3739 15.438C16.3739 15.438 16.3739 15.4413 16.3739 15.4447C16.2139 15.7281 15.9971 15.9949 15.727 16.2416C15.7237 16.2416 15.7237 16.245 15.7203 16.245C15.4969 16.4317 15.2769 16.5384 15.0634 16.5617C15.0368 16.5684 15.0068 16.5684 14.9667 16.5684C14.8734 16.5684 14.78 16.5551 14.6866 16.5251L14.68 16.5151C14.3465 16.4217 13.793 16.1883 12.8726 15.6781C12.2724 15.348 11.7756 15.0112 11.3521 14.6744C11.1287 14.4976 10.9019 14.3009 10.6685 14.0675C10.6618 14.0608 10.6518 14.0508 10.6452 14.0441C10.6385 14.0375 10.6285 14.0275 10.6218 14.0208C10.6151 14.0141 10.6051 14.0041 10.5985 13.9975C10.5918 13.9908 10.5818 13.9808 10.5751 13.9741C10.345 13.7407 10.145 13.514 9.96824 13.2905C9.63145 12.8704 9.29466 12.3702 8.96454 11.77C8.45436 10.8463 8.22094 10.2928 8.12757 9.96266L8.11757 9.95599C8.08756 9.86262 8.07422 9.76925 8.07422 9.67588C8.07422 9.63587 8.07422 9.60586 8.08089 9.57918C8.10756 9.36244 8.21427 9.14569 8.39767 8.92227C8.39767 8.91894 8.401 8.91894 8.401 8.91561C8.64776 8.64217 8.91453 8.42876 9.19796 8.2687C9.19796 8.2687 9.2013 8.2687 9.20463 8.2687C9.50474 8.11198 9.78818 8.16533 9.98492 8.39542C9.98492 8.39542 10.3884 8.87893 10.5618 9.11568C10.7252 9.33909 10.9453 9.69256 11.0553 9.88929C11.252 10.2428 11.1287 10.6062 10.9353 10.7563L10.5451 11.0664C10.3484 11.2265 10.3751 11.5232 10.3751 11.5232C10.3751 11.5232 10.9519 13.7174 13.1194 14.2676Z" fill="white"/>
</svg>
